<svg width="410" height="44" viewBox="0 0 410 44" fill="none" xmlns="http://www.w3.org/2000/svg">
<path d="M31.1747 12.7305H24.2713C24.2926 11.8143 24.1754 11.0046 23.9197 10.3015C23.6641 9.58771 23.2805 8.98047 22.7692 8.47976C22.2685 7.97905 21.6559 7.60085 20.9315 7.34517C20.207 7.07884 19.392 6.94567 18.4865 6.94567C16.7393 6.94567 15.136 7.38246 13.6765 8.25604C12.217 9.12962 10.9865 10.3974 9.98509 12.0593C8.98367 13.7106 8.29119 15.7081 7.90767 18.0518C7.5348 20.3104 7.55611 22.2013 7.97159 23.7248C8.38707 25.2482 9.12216 26.3988 10.1768 27.1765C11.2422 27.9435 12.5685 28.3271 14.1559 28.3271C15.136 28.3271 16.0682 28.2045 16.9524 27.9595C17.8366 27.7038 18.641 27.3416 19.3654 26.8729C20.1005 26.3935 20.7397 25.8129 21.283 25.131C21.837 24.4492 22.2685 23.6768 22.5774 22.8139H29.5288C29.092 24.3161 28.4102 25.7649 27.4833 27.1605C26.5671 28.5561 25.4325 29.8026 24.0795 30.8999C22.7266 31.9865 21.1871 32.8494 19.4613 33.4886C17.7354 34.1278 15.8445 34.4474 13.7884 34.4474C10.8161 34.4474 8.26456 33.7656 6.13388 32.402C4.01385 31.0384 2.48509 29.0728 1.54759 26.5053C0.610085 23.9379 0.434304 20.843 1.02024 17.2209C1.60618 13.7159 2.75142 10.7436 4.45597 8.30398C6.17116 5.85369 8.25391 3.99467 10.7042 2.72692C13.1651 1.45916 15.7965 0.825283 18.5984 0.825283C20.5479 0.825283 22.3111 1.09162 23.8878 1.62429C25.4645 2.15696 26.8068 2.93466 27.9148 3.95738C29.0334 4.96946 29.875 6.21058 30.4396 7.68075C31.0043 9.15092 31.2493 10.8342 31.1747 12.7305ZM32.5091 34L36.6 9.45454H43.1998L42.4806 13.7372H42.7363C43.4395 12.2138 44.3823 11.0632 45.5648 10.2855C46.758 9.49716 48.0417 9.10298 49.416 9.10298C49.7569 9.10298 50.1138 9.12429 50.4867 9.1669C50.8702 9.19886 51.2111 9.25213 51.5094 9.3267L50.4867 15.3832C50.1884 15.2766 49.7623 15.1914 49.2083 15.1275C48.665 15.0529 48.1483 15.0156 47.6582 15.0156C46.6674 15.0156 45.7459 15.234 44.8936 15.6708C44.0414 16.0969 43.3223 16.6935 42.7363 17.4606C42.161 18.2276 41.7828 19.1119 41.6017 20.1133L39.3166 34H32.5091ZM54.3699 43.2045C53.4963 43.2045 52.6973 43.1353 51.9728 42.9968C51.2484 42.869 50.6518 42.7038 50.1831 42.5014L52.5801 37.4197C53.3365 37.6648 54.0236 37.7926 54.6415 37.8033C55.2701 37.8139 55.8453 37.6541 56.3674 37.3239C56.8894 36.9936 57.3688 36.4503 57.8056 35.6939L58.4128 34.6552L53.8105 9.45454H60.714L62.7914 27.5121H63.0471L71.1809 9.45454H78.6436L64.5971 36.6527C63.9047 37.9844 63.0843 39.1403 62.1362 40.1204C61.1987 41.1005 60.0854 41.8569 58.7963 42.3896C57.5179 42.9329 56.0424 43.2045 54.3699 43.2045ZM76.5502 43.2045L82.2072 9.45454H88.9189L88.2317 13.5774H88.5353C88.9402 12.9169 89.4782 12.2457 90.1493 11.5639C90.8311 10.8714 91.6781 10.2962 92.6902 9.83807C93.7022 9.36932 94.8901 9.13494 96.2537 9.13494C98.0542 9.13494 99.6255 9.60369 100.968 10.5412C102.31 11.468 103.28 12.869 103.876 14.744C104.483 16.6083 104.553 18.9467 104.084 21.7592C103.637 24.4972 102.811 26.8089 101.607 28.6946C100.414 30.5696 98.981 31.9918 97.3084 32.9613C95.6465 33.9201 93.8833 34.3995 92.019 34.3995C90.698 34.3995 89.6113 34.1811 88.7591 33.7443C87.9174 33.3075 87.2623 32.7589 86.7935 32.0984C86.3248 31.4272 85.9945 30.7507 85.8027 30.0689H85.5471L83.3738 43.2045H76.5502ZM86.8255 21.7273C86.5911 23.1868 86.5804 24.4599 86.7935 25.5465C87.0172 26.6332 87.4647 27.4801 88.1358 28.0874C88.807 28.6839 89.6912 28.9822 90.7885 28.9822C91.8965 28.9822 92.8819 28.6786 93.7449 28.0714C94.6078 27.4535 95.3269 26.6012 95.9022 25.5146C96.4775 24.4173 96.8876 23.1548 97.1326 21.7273C97.3564 20.3104 97.3617 19.0639 97.1486 17.9879C96.9355 16.9119 96.4988 16.0703 95.8382 15.4631C95.1777 14.8558 94.2828 14.5522 93.1536 14.5522C92.0563 14.5522 91.0708 14.8452 90.1973 15.4311C89.3343 16.017 88.6152 16.848 88.04 17.924C87.4647 19 87.0598 20.2678 86.8255 21.7273ZM123.704 9.45454L122.857 14.5682H108.059L108.922 9.45454H123.704ZM113.237 3.57386H120.044L116.241 26.4574C116.134 27.0859 116.15 27.576 116.289 27.9276C116.427 28.2685 116.656 28.5082 116.976 28.6467C117.306 28.7852 117.7 28.8544 118.158 28.8544C118.478 28.8544 118.803 28.8278 119.133 28.7745C119.464 28.7106 119.714 28.6626 119.884 28.6307L120.14 33.6964C119.756 33.8136 119.24 33.9414 118.59 34.0799C117.951 34.2184 117.194 34.3036 116.321 34.3356C114.659 34.3995 113.253 34.1811 112.102 33.6804C110.951 33.169 110.126 32.386 109.625 31.3313C109.124 30.2766 109.018 28.9503 109.305 27.3523L113.237 3.57386ZM134.906 34.4794C132.402 34.4794 130.33 33.9467 128.689 32.8814C127.049 31.8054 125.893 30.3139 125.222 28.407C124.561 26.4893 124.439 24.2575 124.854 21.7113C125.259 19.1971 126.101 16.9972 127.379 15.1115C128.657 13.2259 130.282 11.761 132.253 10.717C134.224 9.66229 136.445 9.13494 138.917 9.13494C141.41 9.13494 143.476 9.67294 145.117 10.7489C146.758 11.8143 147.913 13.3058 148.585 15.2234C149.256 17.141 149.384 19.3729 148.968 21.919C148.553 24.4226 147.7 26.6172 146.411 28.5028C145.122 30.3885 143.498 31.8587 141.537 32.9134C139.577 33.9574 137.367 34.4794 134.906 34.4794ZM135.577 29.206C136.727 29.206 137.745 28.881 138.629 28.2312C139.524 27.5707 140.264 26.6758 140.85 25.5465C141.447 24.4066 141.862 23.1175 142.097 21.6793C142.331 20.2624 142.347 19.0053 142.145 17.908C141.942 16.8001 141.516 15.9265 140.866 15.2873C140.227 14.6481 139.348 14.3285 138.229 14.3285C137.079 14.3285 136.056 14.6587 135.161 15.3192C134.266 15.9691 133.526 16.864 132.94 18.0039C132.354 19.1438 131.944 20.4382 131.71 21.8871C131.486 23.2933 131.47 24.5504 131.662 25.6584C131.853 26.7557 132.274 27.6239 132.924 28.2631C133.574 28.8917 134.458 29.206 135.577 29.206ZM161.924 34L167.357 1.27273H189.026L188.067 6.97763H173.318L172.039 14.7759H185.351L184.392 20.4808H171.081L168.843 34H161.924ZM200.36 1.27273L194.927 34H188.119L193.553 1.27273H200.36ZM211.502 34.4794C208.999 34.4794 206.927 33.9467 205.286 32.8814C203.645 31.8054 202.49 30.3139 201.818 28.407C201.158 26.4893 201.035 24.2575 201.451 21.7113C201.856 19.1971 202.697 16.9972 203.976 15.1115C205.254 13.2259 206.879 11.761 208.85 10.717C210.82 9.66229 213.042 9.13494 215.513 9.13494C218.006 9.13494 220.073 9.67294 221.714 10.7489C223.354 11.8143 224.51 13.3058 225.181 15.2234C225.852 17.141 225.98 19.3729 225.565 21.919C225.149 24.4226 224.297 26.6172 223.008 28.5028C221.719 30.3885 220.094 31.8587 218.134 32.9134C216.174 33.9574 213.963 34.4794 211.502 34.4794ZM212.173 29.206C213.324 29.206 214.341 28.881 215.226 28.2312C216.121 27.5707 216.861 26.6758 217.447 25.5465C218.044 24.4066 218.459 23.1175 218.693 21.6793C218.928 20.2624 218.944 19.0053 218.741 17.908C218.539 16.8001 218.113 15.9265 217.463 15.2873C216.824 14.6481 215.945 14.3285 214.826 14.3285C213.676 14.3285 212.653 14.6587 211.758 15.3192C210.863 15.9691 210.123 16.864 209.537 18.0039C208.951 19.1438 208.541 20.4382 208.306 21.8871C208.083 23.2933 208.067 24.5504 208.258 25.6584C208.45 26.7557 208.871 27.6239 209.521 28.2631C210.171 28.8917 211.055 29.206 212.173 29.206ZM239.1 34.4794C236.596 34.4794 234.524 33.9467 232.884 32.8814C231.243 31.8054 230.087 30.3139 229.416 28.407C228.756 26.4893 228.633 24.2575 229.048 21.7113C229.453 19.1971 230.295 16.9972 231.573 15.1115C232.852 13.2259 234.476 11.761 236.447 10.717C238.418 9.66229 240.639 9.13494 243.111 9.13494C245.604 9.13494 247.671 9.67294 249.311 10.7489C250.952 11.8143 252.108 13.3058 252.779 15.2234C253.45 17.141 253.578 19.3729 253.162 21.919C252.747 24.4226 251.895 26.6172 250.606 28.5028C249.317 30.3885 247.692 31.8587 245.732 32.9134C243.771 33.9574 241.561 34.4794 239.1 34.4794ZM239.771 29.206C240.922 29.206 241.939 28.881 242.823 28.2312C243.718 27.5707 244.459 26.6758 245.045 25.5465C245.641 24.4066 246.057 23.1175 246.291 21.6793C246.525 20.2624 246.541 19.0053 246.339 17.908C246.137 16.8001 245.71 15.9265 245.061 15.2873C244.421 14.6481 243.542 14.3285 242.424 14.3285C241.273 14.3285 240.251 14.6587 239.356 15.3192C238.461 15.9691 237.72 16.864 237.134 18.0039C236.548 19.1438 236.138 20.4382 235.904 21.8871C235.68 23.2933 235.664 24.5504 235.856 25.6584C236.048 26.7557 236.469 27.6239 237.118 28.2631C237.768 28.8917 238.653 29.206 239.771 29.206ZM255.575 34L259.666 9.45454H266.266L265.547 13.7372H265.803C266.506 12.2138 267.449 11.0632 268.631 10.2855C269.824 9.49716 271.108 9.10298 272.482 9.10298C272.823 9.10298 273.18 9.12429 273.553 9.1669C273.937 9.19886 274.278 9.25213 274.576 9.3267L273.553 15.3832C273.255 15.2766 272.829 15.1914 272.275 15.1275C271.731 15.0529 271.215 15.0156 270.725 15.0156C269.734 15.0156 268.812 15.234 267.96 15.6708C267.108 16.0969 266.389 16.6935 265.803 17.4606C265.227 18.2276 264.849 19.1119 264.668 20.1133L262.383 34H255.575ZM316.907 12.7305H310.004C310.025 11.8143 309.908 11.0046 309.652 10.3015C309.396 9.58771 309.013 8.98047 308.502 8.47976C308.001 7.97905 307.388 7.60085 306.664 7.34517C305.939 7.07884 305.124 6.94567 304.219 6.94567C302.472 6.94567 300.868 7.38246 299.409 8.25604C297.949 9.12962 296.719 10.3974 295.718 12.0593C294.716 13.7106 294.024 15.7081 293.64 18.0518C293.267 20.3104 293.289 22.2013 293.704 23.7248C294.119 25.2482 294.855 26.3988 295.909 27.1765C296.975 27.9435 298.301 28.3271 299.888 28.3271C300.868 28.3271 301.801 28.2045 302.685 27.9595C303.569 27.7038 304.373 27.3416 305.098 26.8729C305.833 26.3935 306.472 25.8129 307.015 25.131C307.569 24.4492 308.001 23.6768 308.31 22.8139H315.261C314.824 24.3161 314.143 25.7649 313.216 27.1605C312.3 28.5561 311.165 29.8026 309.812 30.8999C308.459 31.9865 306.92 32.8494 305.194 33.4886C303.468 34.1278 301.577 34.4474 299.521 34.4474C296.548 34.4474 293.997 33.7656 291.866 32.402C289.746 31.0384 288.218 29.0728 287.28 26.5053C286.343 23.9379 286.167 20.843 286.753 17.2209C287.339 13.7159 288.484 10.7436 290.188 8.30398C291.904 5.85369 293.986 3.99467 296.437 2.72692C298.898 1.45916 301.529 0.825283 304.331 0.825283C306.28 0.825283 308.044 1.09162 309.62 1.62429C311.197 2.15696 312.539 2.93466 313.647 3.95738C314.766 4.96946 315.607 6.21058 316.172 7.68075C316.737 9.15092 316.982 10.8342 316.907 12.7305ZM327.446 19.8097L325.081 34H318.289L323.723 1.27273H330.322L328.277 13.7852H328.549C329.337 12.3363 330.418 11.2017 331.793 10.3814C333.167 9.55043 334.792 9.13494 336.667 9.13494C338.371 9.13494 339.793 9.50781 340.933 10.2536C342.084 10.9886 342.899 12.0486 343.378 13.4336C343.858 14.8079 343.938 16.4538 343.618 18.3714L340.997 34H334.206L336.603 19.5859C336.848 18.0732 336.651 16.896 336.011 16.0543C335.383 15.2127 334.381 14.7919 333.007 14.7919C332.08 14.7919 331.228 14.989 330.45 15.3832C329.673 15.7773 329.017 16.3526 328.485 17.109C327.963 17.8548 327.616 18.755 327.446 19.8097ZM353.258 34.4634C351.703 34.4634 350.355 34.1918 349.215 33.6484C348.086 33.0945 347.255 32.2741 346.722 31.1875C346.189 30.1009 346.056 28.7532 346.323 27.1445C346.557 25.7809 346.999 24.641 347.649 23.7248C348.309 22.7979 349.114 22.0522 350.062 21.4876C351.01 20.9229 352.059 20.4915 353.21 20.1932C354.371 19.8949 355.57 19.6925 356.805 19.5859C358.233 19.4368 359.394 19.293 360.289 19.1545C361.195 19.016 361.871 18.8189 362.319 18.5632C362.766 18.2969 363.038 17.9027 363.134 17.3807V17.2848C363.293 16.2834 363.107 15.5057 362.574 14.9517C362.052 14.3871 361.216 14.1048 360.065 14.1048C358.851 14.1048 357.818 14.3711 356.965 14.9038C356.124 15.4364 355.522 16.1129 355.16 16.9332L348.959 16.4219C349.513 14.9304 350.35 13.6413 351.468 12.5547C352.597 11.4574 353.956 10.6158 355.543 10.0298C357.13 9.43324 358.91 9.13494 360.88 9.13494C362.244 9.13494 363.517 9.29474 364.7 9.61435C365.893 9.93395 366.921 10.4293 367.784 11.1005C368.657 11.7717 369.286 12.6346 369.669 13.6893C370.064 14.7333 370.144 15.9851 369.909 17.4446L367.145 34H360.689L361.264 30.5962H361.072C360.55 31.3633 359.911 32.0398 359.155 32.6257C358.398 33.201 357.53 33.6538 356.55 33.984C355.57 34.3036 354.472 34.4634 353.258 34.4634ZM355.991 29.7653C356.981 29.7653 357.892 29.5682 358.723 29.174C359.565 28.7692 360.257 28.2259 360.801 27.544C361.354 26.8622 361.706 26.0898 361.855 25.2269L362.271 22.6222C362.058 22.7607 361.749 22.8832 361.344 22.9897C360.95 23.0962 360.518 23.1974 360.049 23.2933C359.591 23.3786 359.128 23.4585 358.659 23.533C358.19 23.5969 357.77 23.6609 357.397 23.7248C356.576 23.842 355.841 24.0284 355.191 24.2841C354.542 24.5398 354.014 24.886 353.609 25.3228C353.205 25.7489 352.954 26.2816 352.858 26.9208C352.709 27.8477 352.928 28.5561 353.514 29.0462C354.11 29.5256 354.936 29.7653 355.991 29.7653ZM372.426 34L376.517 9.45454H383.117L382.398 13.7372H382.653C383.356 12.2138 384.299 11.0632 385.482 10.2855C386.675 9.49716 387.959 9.10298 389.333 9.10298C389.674 9.10298 390.031 9.12429 390.404 9.1669C390.787 9.19886 391.128 9.25213 391.426 9.3267L390.404 15.3832C390.105 15.2766 389.679 15.1914 389.125 15.1275C388.582 15.0529 388.065 15.0156 387.575 15.0156C386.584 15.0156 385.663 15.234 384.811 15.6708C383.958 16.0969 383.239 16.6935 382.653 17.4606C382.078 18.2276 381.7 19.1119 381.519 20.1133L379.234 34H372.426ZM409.216 9.45454L408.369 14.5682H393.572L394.435 9.45454H409.216ZM398.749 3.57386H405.557L401.754 26.4574C401.647 27.0859 401.663 27.576 401.801 27.9276C401.94 28.2685 402.169 28.5082 402.489 28.6467C402.819 28.7852 403.213 28.8544 403.671 28.8544C403.991 28.8544 404.316 28.8278 404.646 28.7745C404.976 28.7106 405.227 28.6626 405.397 28.6307L405.653 33.6964C405.269 33.8136 404.752 33.9414 404.103 34.0799C403.463 34.2184 402.707 34.3036 401.833 34.3356C400.172 34.3995 398.765 34.1811 397.615 33.6804C396.464 33.169 395.638 32.386 395.138 31.3313C394.637 30.2766 394.531 28.9503 394.818 27.3523L398.749 3.57386Z" fill="#9B59B6"/>
</svg>
